# Aspose.3D Wavefront OBJ Exporter
# Copyright 2004-2023 Aspose Pty Ltd.
# File created: 05/09/2023 04:20:02

mtllib material.lib

#
# object pPlane1
#

v -0.50000000745058056 -0.27500000409781932 -4.1523846313977345E-08
v 0.50000000745058056 -0.27500000409781932 -4.1523846313977345E-08
v 0.50000000745058056 0.27500000409781932 4.1523846313977345E-08
v -0.50000000745058056 0.27500000409781932 4.1523846313977345E-08
# 4 vertices

vn 0 -1.5099579352803375E-07 0.99999994039534368
vn 0 -1.5099579352803375E-07 0.99999994039534368
vn 0 -1.5099579352803375E-07 0.99999994039534368
vn 0 -1.5099579352803375E-07 0.99999994039534368
# 4 vertex normals

vt 0 0 0
vt 1 0 0
vt 1 1 0
vt 0 1 0
# 4 texture coords

g pPlane1
usemtl lambert2
s 1
f 1/1/1 2/2/2 3/3/3
f 1/1/1 3/3/3 4/4/4
#2 polygons

